<svg version="1.1" xmlns="http://www.w3.org/2000/svg" xmlns:xlink="http://www.w3.org/1999/xlink" width="32" height="26" viewBox="0 0 32 26">
<g id="Favourites">
<path id="Favourites" d="M27.169,0.767 C23.340,-0.999 18.814,0.410 16.697,3.898 C16.696,3.899 16.696,3.899 16.693,3.900 C16.689,3.911 16.683,3.923 16.674,3.933 C16.673,3.936 16.671,3.940 16.668,3.944 C16.523,4.169 16.267,4.319 15.975,4.319 C15.683,4.319 15.427,4.170 15.282,3.944 C15.279,3.940 15.279,3.936 15.275,3.933 C15.268,3.923 15.262,3.911 15.257,3.900 C15.257,3.900 15.257,3.900 15.255,3.898 C13.138,0.410 8.612,-0.999 4.783,0.767 C0.713,2.642 -1.031,7.389 0.885,11.371 C2.397,14.511 10.915,22.279 14.443,25.419 C14.443,25.419 14.446,25.419 14.446,25.419 C14.848,25.778 15.386,25.999 15.975,25.999 C16.562,25.999 17.096,25.780 17.502,25.424 C21.024,22.290 29.552,14.515 31.067,11.371 C32.984,7.389 31.240,2.642 27.169,0.767 z" fill="#333333" />
</g>
</svg>
