<svg version="1.1" xmlns="http://www.w3.org/2000/svg" xmlns:xlink="http://www.w3.org/1999/xlink" width="34" height="15" viewBox="0 0 34 15">
<g id="svg-icon-sale">
<path id="bg" d="M33.194,8.874 C33.194,8.874 27.694,14.217 27.694,14.217 C26.970,14.920 25.912,15.162 24.946,14.875 C24.642,14.949 24.328,15.000 24.000,15.000 C24.000,15.000 4.000,15.000 4.000,15.000 C1.791,15.000 -0.000,13.209 -0.000,11.000 C-0.000,11.000 -0.000,4.000 -0.000,4.000 C-0.000,1.791 1.791,0.000 4.000,0.000 C4.000,0.000 24.000,0.000 24.000,0.000 C24.310,0.000 24.609,0.043 24.899,0.110 C25.877,-0.199 26.958,0.040 27.694,0.753 C27.694,0.753 33.194,6.096 33.194,6.096 C33.731,6.618 34.000,7.301 34.000,7.985 C34.000,8.668 33.731,8.352 33.194,8.874 z" fill="#FF3F2B" />
<path id="sale" d="M23.106,10.023 L23.106,11.000 L20.172,11.000 L20.172,3.969 L23.106,3.969 L23.106,4.945 L21.594,4.945 L21.594,6.859 L22.665,6.859 L22.665,7.859 L21.594,7.859 L21.594,10.023 L23.106,10.023 zM16.099,3.969 L17.521,3.969 L17.521,10.023 L18.919,10.023 L18.919,11.000 L16.099,11.000 L16.099,3.969 zM13.155,9.496 L12.237,9.496 L11.963,11.000 L10.553,11.000 L12.072,3.969 L13.330,3.969 L14.846,11.000 L13.444,11.000 L13.155,9.496 zM12.705,6.012 L12.334,8.621 L13.061,8.621 L12.705,6.012 zM7.458,6.299 C7.550,6.410 7.636,6.501 7.714,6.574 C7.792,6.647 7.896,6.736 8.026,6.842 C8.157,6.947 8.249,7.025 8.304,7.074 C8.504,7.251 8.673,7.417 8.812,7.572 C8.950,7.727 9.080,7.902 9.202,8.098 C9.325,8.293 9.416,8.504 9.478,8.731 C9.539,8.957 9.569,9.202 9.569,9.465 C9.569,9.957 9.394,10.360 9.042,10.674 C8.690,10.988 8.263,11.145 7.761,11.145 C7.435,11.145 7.146,11.085 6.894,10.965 C6.641,10.845 6.437,10.682 6.282,10.477 C6.127,10.271 6.008,10.043 5.925,9.793 C5.841,9.543 5.793,9.275 5.780,8.988 C5.780,8.988 7.222,8.711 7.222,8.711 C7.222,8.854 7.224,8.980 7.230,9.090 C7.235,9.199 7.248,9.318 7.271,9.447 C7.293,9.576 7.323,9.682 7.360,9.764 C7.398,9.846 7.451,9.915 7.521,9.971 C7.589,10.027 7.671,10.055 7.765,10.055 C8.046,10.055 8.187,9.875 8.187,9.516 C8.187,9.023 7.909,8.534 7.354,8.047 C7.354,8.047 6.913,7.672 6.913,7.672 C6.772,7.555 6.660,7.457 6.577,7.379 C6.494,7.301 6.396,7.195 6.282,7.063 C6.169,6.930 6.080,6.801 6.017,6.678 C5.953,6.554 5.898,6.405 5.853,6.231 C5.807,6.056 5.784,5.871 5.784,5.676 C5.784,5.105 5.965,4.654 6.327,4.322 C6.689,3.990 7.170,3.824 7.769,3.824 C8.266,3.824 8.689,4.001 9.038,4.356 C9.387,4.710 9.562,5.137 9.562,5.637 C9.562,5.637 9.558,5.688 9.558,5.688 C9.558,5.721 9.558,5.760 9.558,5.805 C9.558,5.805 8.089,6.008 8.089,6.008 C8.089,5.979 8.091,5.934 8.095,5.873 C8.099,5.812 8.101,5.762 8.101,5.723 C8.101,5.629 8.094,5.539 8.081,5.453 C8.068,5.367 8.046,5.281 8.017,5.195 C7.987,5.109 7.940,5.041 7.878,4.990 C7.815,4.939 7.740,4.914 7.651,4.914 C7.495,4.914 7.378,4.975 7.300,5.098 C7.222,5.220 7.183,5.365 7.183,5.531 C7.183,5.677 7.205,5.814 7.251,5.941 C7.297,6.069 7.366,6.188 7.458,6.299 z" fill="#FFFFFF" />
</g>
</svg>
