<svg version="1.1" xmlns="http://www.w3.org/2000/svg" xmlns:xlink="http://www.w3.org/1999/xlink" width="19" height="19" viewBox="0 0 19 19">
<g id="icon-search">
<g id="icon-search">
<path id="search" d="M19.896,18.896 L19.077,19.710 C19.077,19.710 14.367,15.028 14.367,15.028 C12.945,16.254 11.094,17.001 9.064,17.001 C4.587,17.001 0.958,13.392 0.958,8.941 C0.958,4.490 4.587,0.881 9.064,0.881 C13.541,0.881 17.171,4.490 17.171,8.941 C17.171,10.959 16.419,12.799 15.186,14.213 C15.186,14.213 19.896,18.896 19.896,18.896 zM9.064,2.033 C5.227,2.033 2.116,5.126 2.116,8.941 C2.116,12.756 5.227,15.849 9.064,15.849 C12.902,15.849 16.013,12.756 16.013,8.941 C16.013,5.126 12.902,2.033 9.064,2.033 z" fill="#FFFFFF" />
</g>
</g>
</svg>
