<svg version="1.1" xmlns="http://www.w3.org/2000/svg" xmlns:xlink="http://www.w3.org/1999/xlink" width="24" height="18" viewBox="0 0 24 18">
<defs>
<filter id="Shape-5-copy-fx" filterUnits="userSpaceOnUse">
<feFlood flood-color="#FFFFFF" flood-opacity="1.000"/>
<feComposite operator="in" in2="SourceGraphic"/>
<feBlend mode="normal" in2="SourceGraphic" result="colorOverlay"/>
</filter>
</defs>
<g id="icon-card">
<g id="icon-card">
<path id="Shape-5-copy" d="M23.648,18.520 C23.648,18.520 6.865,18.520 6.865,18.520 C6.399,18.520 6.022,18.138 6.022,17.668 C6.022,17.668 6.022,7.403 6.022,7.403 C6.022,6.932 6.399,6.551 6.865,6.551 C6.865,6.551 23.648,6.551 23.648,6.551 C24.114,6.551 24.491,6.932 24.491,7.403 C24.491,7.403 24.491,17.668 24.491,17.668 C24.491,18.138 24.114,18.520 23.648,18.520 zM22.584,17.291 C22.779,17.291 22.945,17.178 22.945,16.949 C22.945,16.810 22.880,16.731 22.798,16.687 C22.873,16.647 22.929,16.576 22.929,16.451 C22.929,16.257 22.784,16.121 22.582,16.121 C22.390,16.121 22.238,16.244 22.234,16.450 C22.234,16.450 22.441,16.450 22.441,16.450 C22.446,16.362 22.504,16.311 22.582,16.311 C22.657,16.311 22.721,16.361 22.721,16.458 C22.721,16.538 22.678,16.601 22.577,16.601 C22.577,16.601 22.547,16.601 22.547,16.601 L22.547,16.784 C22.547,16.784 22.577,16.784 22.577,16.784 C22.680,16.784 22.737,16.847 22.737,16.942 C22.737,17.046 22.673,17.102 22.584,17.102 C22.502,17.102 22.432,17.056 22.429,16.952 C22.429,16.952 22.221,16.952 22.221,16.952 C22.224,17.193 22.398,17.291 22.584,17.291 zM21.365,16.501 L21.563,16.501 L21.563,16.320 L21.864,16.320 L21.495,17.282 L21.720,17.282 L22.090,16.320 L22.090,16.131 L21.365,16.131 L21.365,16.501 zM20.799,16.821 C20.826,16.821 20.856,16.818 20.884,16.807 C20.884,16.807 20.647,17.282 20.647,17.282 L20.872,17.282 C20.872,17.282 21.114,16.784 21.114,16.784 C21.165,16.679 21.208,16.582 21.208,16.477 C21.208,16.249 21.055,16.121 20.853,16.121 C20.652,16.121 20.498,16.254 20.498,16.480 C20.498,16.694 20.645,16.821 20.799,16.821 zM18.865,17.291 C19.060,17.291 19.227,17.178 19.227,16.949 C19.227,16.810 19.161,16.731 19.080,16.687 C19.155,16.647 19.211,16.576 19.211,16.451 C19.211,16.257 19.065,16.121 18.864,16.121 C18.672,16.121 18.520,16.244 18.515,16.450 C18.515,16.450 18.723,16.450 18.723,16.450 C18.728,16.362 18.785,16.311 18.864,16.311 C18.939,16.311 19.003,16.361 19.003,16.458 C19.003,16.538 18.960,16.601 18.859,16.601 C18.859,16.601 18.828,16.601 18.828,16.601 L18.828,16.784 C18.828,16.784 18.859,16.784 18.859,16.784 C18.961,16.784 19.019,16.847 19.019,16.942 C19.019,17.046 18.955,17.102 18.865,17.102 C18.784,17.102 18.713,17.056 18.710,16.952 C18.710,16.952 18.502,16.952 18.502,16.952 C18.505,17.193 18.680,17.291 18.865,17.291 zM17.750,17.199 C17.800,17.249 17.886,17.291 18.005,17.291 C18.123,17.291 18.205,17.249 18.256,17.198 C18.339,17.114 18.357,17.023 18.357,16.894 C18.357,16.786 18.344,16.677 18.254,16.587 C18.208,16.540 18.136,16.509 18.041,16.509 C17.965,16.509 17.901,16.538 17.870,16.568 C17.870,16.568 17.870,16.320 17.870,16.320 L18.331,16.320 L18.331,16.131 L17.682,16.131 L17.682,16.781 C17.682,16.781 17.872,16.781 17.872,16.781 C17.886,16.736 17.925,16.687 18.009,16.687 C18.110,16.687 18.149,16.761 18.149,16.894 C18.149,16.967 18.141,17.028 18.104,17.065 C18.078,17.091 18.045,17.102 18.005,17.102 C17.918,17.102 17.877,17.051 17.865,16.960 C17.865,16.960 17.657,16.960 17.657,16.960 C17.664,17.044 17.680,17.128 17.750,17.199 zM17.130,17.291 C17.331,17.291 17.485,17.159 17.485,16.933 C17.485,16.719 17.339,16.592 17.186,16.592 C17.159,16.592 17.128,16.595 17.101,16.606 C17.101,16.606 17.338,16.131 17.338,16.131 L17.111,16.131 C17.111,16.131 16.871,16.629 16.871,16.629 C16.819,16.734 16.775,16.831 16.775,16.936 C16.775,17.164 16.928,17.291 17.130,17.291 zM16.261,17.291 C16.463,17.291 16.616,17.159 16.616,16.933 C16.616,16.719 16.471,16.592 16.317,16.592 C16.290,16.592 16.260,16.595 16.232,16.606 C16.232,16.606 16.469,16.131 16.469,16.131 L16.242,16.131 C16.242,16.131 16.002,16.629 16.002,16.629 C15.951,16.734 15.906,16.831 15.906,16.936 C15.906,17.164 16.060,17.291 16.261,17.291 zM14.230,16.821 C14.257,16.821 14.288,16.818 14.315,16.807 C14.315,16.807 14.078,17.282 14.078,17.282 L14.304,17.282 C14.304,17.282 14.545,16.784 14.545,16.784 C14.596,16.679 14.639,16.582 14.639,16.477 C14.639,16.249 14.486,16.121 14.284,16.121 C14.083,16.121 13.929,16.254 13.929,16.480 C13.929,16.694 14.076,16.821 14.230,16.821 zM13.409,17.291 C13.605,17.291 13.771,17.178 13.771,16.949 C13.771,16.810 13.705,16.731 13.624,16.687 C13.699,16.647 13.755,16.576 13.755,16.451 C13.755,16.257 13.609,16.121 13.408,16.121 C13.216,16.121 13.064,16.244 13.059,16.450 C13.059,16.450 13.267,16.450 13.267,16.450 C13.272,16.362 13.329,16.311 13.408,16.311 C13.483,16.311 13.547,16.361 13.547,16.458 C13.547,16.538 13.504,16.601 13.403,16.601 C13.403,16.601 13.373,16.601 13.373,16.601 L13.373,16.784 C13.373,16.784 13.403,16.784 13.403,16.784 C13.505,16.784 13.563,16.847 13.563,16.942 C13.563,17.046 13.499,17.102 13.409,17.102 C13.328,17.102 13.257,17.056 13.254,16.952 C13.254,16.952 13.046,16.952 13.046,16.952 C13.049,17.193 13.224,17.291 13.409,17.291 zM12.543,17.291 C12.744,17.291 12.898,17.159 12.898,16.933 C12.898,16.719 12.752,16.592 12.599,16.592 C12.571,16.592 12.541,16.595 12.514,16.606 C12.514,16.606 12.751,16.131 12.751,16.131 L12.523,16.131 C12.523,16.131 12.283,16.629 12.283,16.629 C12.232,16.734 12.187,16.831 12.187,16.936 C12.187,17.164 12.341,17.291 12.543,17.291 zM11.322,16.501 L11.520,16.501 L11.520,16.320 L11.821,16.320 L11.452,17.282 L11.677,17.282 L12.047,16.320 L12.047,16.131 L11.322,16.131 L11.322,16.501 zM9.348,16.949 C9.348,17.169 9.510,17.291 9.696,17.291 C9.881,17.291 10.041,17.169 10.041,16.949 C10.041,16.949 10.041,16.464 10.041,16.464 C10.041,16.244 9.881,16.121 9.696,16.121 C9.510,16.121 9.348,16.244 9.348,16.464 C9.348,16.464 9.348,16.949 9.348,16.949 zM8.480,16.949 C8.480,17.169 8.641,17.291 8.827,17.291 C9.013,17.291 9.173,17.169 9.173,16.949 C9.173,16.949 9.173,16.464 9.173,16.464 C9.173,16.244 9.013,16.121 8.827,16.121 C8.641,16.121 8.480,16.244 8.480,16.464 C8.480,16.464 8.480,16.949 8.480,16.949 zM7.611,16.949 C7.611,17.169 7.773,17.291 7.959,17.291 C8.144,17.291 8.304,17.169 8.304,16.949 C8.304,16.949 8.304,16.464 8.304,16.464 C8.304,16.244 8.144,16.121 7.959,16.121 C7.773,16.121 7.611,16.244 7.611,16.464 C7.611,16.464 7.611,16.949 7.611,16.949 zM6.743,16.949 C6.743,17.169 6.904,17.291 7.090,17.291 C7.276,17.291 7.436,17.169 7.436,16.949 C7.436,16.949 7.436,16.464 7.436,16.464 C7.436,16.244 7.276,16.121 7.090,16.121 C6.904,16.121 6.743,16.244 6.743,16.464 C6.743,16.464 6.743,16.949 6.743,16.949 zM23.558,10.097 C23.558,10.026 23.501,9.969 23.432,9.969 C23.432,9.969 6.936,9.969 6.936,9.969 C6.866,9.969 6.809,10.026 6.809,10.097 C6.809,10.097 6.809,12.473 6.809,12.473 C6.809,12.543 6.866,12.600 6.936,12.600 C6.936,12.600 23.432,12.600 23.432,12.600 C23.501,12.600 23.558,12.543 23.558,12.473 C23.558,12.473 23.558,10.097 23.558,10.097 zM23.809,17.093 L23.369,17.093 C23.369,17.093 23.688,16.719 23.688,16.719 C23.766,16.627 23.809,16.568 23.809,16.456 C23.809,16.249 23.665,16.121 23.464,16.121 C23.268,16.121 23.116,16.248 23.116,16.458 C23.116,16.458 23.324,16.458 23.324,16.458 C23.324,16.346 23.395,16.311 23.464,16.311 C23.552,16.311 23.601,16.369 23.601,16.454 C23.601,16.508 23.584,16.543 23.542,16.593 C23.542,16.593 23.116,17.093 23.116,17.093 L23.116,17.282 L23.809,17.282 L23.809,17.093 zM7.090,16.311 C7.172,16.311 7.228,16.370 7.228,16.467 C7.228,16.467 7.228,16.947 7.228,16.947 C7.228,17.044 7.172,17.102 7.090,17.102 C7.008,17.102 6.951,17.044 6.951,16.947 C6.951,16.947 6.951,16.467 6.951,16.467 C6.951,16.370 7.008,16.311 7.090,16.311 zM7.959,16.311 C8.040,16.311 8.096,16.370 8.096,16.467 C8.096,16.467 8.096,16.947 8.096,16.947 C8.096,17.044 8.040,17.102 7.959,17.102 C7.877,17.102 7.819,17.044 7.819,16.947 C7.819,16.947 7.819,16.467 7.819,16.467 C7.819,16.370 7.877,16.311 7.959,16.311 zM8.827,16.311 C8.909,16.311 8.965,16.370 8.965,16.467 C8.965,16.467 8.965,16.947 8.965,16.947 C8.965,17.044 8.909,17.102 8.827,17.102 C8.745,17.102 8.688,17.044 8.688,16.947 C8.688,16.947 8.688,16.467 8.688,16.467 C8.688,16.370 8.745,16.311 8.827,16.311 zM9.696,16.311 C9.777,16.311 9.833,16.370 9.833,16.467 C9.833,16.467 9.833,16.947 9.833,16.947 C9.833,17.044 9.777,17.102 9.696,17.102 C9.614,17.102 9.556,17.044 9.556,16.947 C9.556,16.947 9.556,16.467 9.556,16.467 C9.556,16.370 9.614,16.311 9.696,16.311 zM12.543,16.766 C12.631,16.766 12.690,16.833 12.690,16.934 C12.690,17.041 12.627,17.102 12.543,17.102 C12.458,17.102 12.395,17.041 12.395,16.934 C12.395,16.828 12.458,16.766 12.543,16.766 zM14.284,16.311 C14.369,16.311 14.432,16.372 14.432,16.479 C14.432,16.585 14.369,16.647 14.284,16.647 C14.196,16.647 14.137,16.580 14.137,16.479 C14.137,16.372 14.200,16.311 14.284,16.311 zM16.261,16.766 C16.349,16.766 16.408,16.833 16.408,16.934 C16.408,17.041 16.346,17.102 16.261,17.102 C16.176,17.102 16.114,17.041 16.114,16.934 C16.114,16.828 16.176,16.766 16.261,16.766 zM17.130,16.766 C17.218,16.766 17.277,16.833 17.277,16.934 C17.277,17.041 17.215,17.102 17.130,17.102 C17.045,17.102 16.983,17.041 16.983,16.934 C16.983,16.828 17.045,16.766 17.130,16.766 zM20.853,16.311 C20.938,16.311 21.000,16.372 21.000,16.479 C21.000,16.585 20.938,16.647 20.853,16.647 C20.765,16.647 20.706,16.580 20.706,16.479 C20.706,16.372 20.768,16.311 20.853,16.311 zM17.076,4.038 C17.055,3.976 16.988,3.944 16.927,3.965 C16.927,3.965 11.885,5.724 11.885,5.724 C11.885,5.724 6.150,5.724 6.150,5.724 C5.646,5.724 5.237,6.136 5.237,6.645 C5.237,6.645 5.237,8.043 5.237,8.043 C5.237,8.043 2.503,8.997 2.503,8.997 C2.442,9.018 2.409,9.085 2.430,9.147 C2.430,9.147 3.141,11.225 3.141,11.225 C3.162,11.286 3.228,11.319 3.289,11.298 C3.289,11.298 5.237,10.618 5.237,10.618 L5.237,16.412 C5.237,16.412 4.997,16.495 4.997,16.495 C4.590,16.637 4.146,16.419 4.005,16.008 C4.005,16.008 0.936,7.031 0.936,7.031 C0.796,6.620 1.012,6.171 1.419,6.029 C1.419,6.029 16.095,0.910 16.095,0.910 C16.502,0.768 16.946,0.986 17.087,1.397 C17.087,1.397 18.566,5.724 18.566,5.724 L17.653,5.724 C17.653,5.724 17.076,4.038 17.076,4.038 z" fill="#000000" filter="url(#Shape-5-copy-fx)" />
</g>
</g>
</svg>
