<svg version="1.1" xmlns="http://www.w3.org/2000/svg" xmlns:xlink="http://www.w3.org/1999/xlink" width="178" height="51" viewBox="0 0 178 51">
<g id="logo-header">
<g id="logo-header">
<path id="indulge" d="M17.000,9.000 C19.000,9.333 21.000,9.667 23.000,10.000 C23.739,12.046 24.005,14.674 24.000,18.000 C22.775,19.068 22.407,20.015 21.000,21.000 C18.239,23.645 12.719,23.709 11.000,20.000 C9.067,17.293 11.206,14.131 12.000,11.000 C12.667,11.000 13.333,11.000 14.000,11.000 C14.804,10.248 16.199,9.759 17.000,9.000 zM104.000,11.000 C103.747,25.618 97.183,36.953 96.000,51.000 C91.334,51.000 86.666,51.000 82.000,51.000 C82.000,50.667 82.000,50.333 82.000,50.000 C85.850,45.503 86.102,37.363 86.000,29.000 C84.393,28.421 83.611,28.169 81.000,28.000 C77.049,34.556 74.129,40.954 73.000,51.000 C69.000,51.000 65.000,51.000 61.000,51.000 C60.918,38.080 65.612,28.228 74.000,24.000 C78.783,21.589 86.988,24.849 89.000,22.000 C90.809,19.688 91.381,14.258 92.000,11.000 C96.000,11.000 100.000,11.000 104.000,11.000 zM163.000,11.000 C162.731,25.576 155.802,36.341 155.000,51.000 C150.667,51.000 146.333,51.000 142.000,51.000 C142.193,45.066 148.654,14.987 151.000,12.000 C153.186,10.363 159.202,10.886 163.000,11.000 zM35.000,51.000 C30.667,51.000 26.333,51.000 22.000,51.000 C24.000,42.001 26.000,32.999 28.000,24.000 C31.666,24.000 35.334,24.000 39.000,24.000 C45.029,19.149 57.596,24.697 59.000,29.000 C62.054,32.892 58.337,47.247 56.000,50.000 C53.667,51.741 46.990,51.116 43.000,51.000 C43.000,50.667 43.000,50.333 43.000,50.000 C46.528,45.545 47.048,36.708 47.000,29.000 C45.477,28.446 45.329,28.295 43.000,28.000 C39.110,34.284 35.647,41.072 35.000,51.000 zM177.000,23.000 C179.882,27.005 173.632,42.916 175.000,51.000 C171.000,51.000 167.000,51.000 163.000,51.000 C161.965,48.115 161.945,43.318 162.000,39.000 C162.738,38.092 163.248,35.902 164.000,35.000 C166.216,27.813 172.412,27.552 177.000,23.000 zM108.000,24.000 C112.333,24.000 116.667,24.000 121.000,24.000 C121.000,24.667 121.000,25.333 121.000,26.000 C118.347,29.478 115.611,45.625 115.000,51.000 C110.667,51.000 106.333,51.000 102.000,51.000 C102.000,50.667 102.000,50.333 102.000,50.000 C104.658,46.271 107.367,29.539 108.000,24.000 zM142.000,24.000 C140.000,32.999 138.000,42.001 136.000,51.000 C131.667,51.000 127.333,51.000 123.000,51.000 C123.000,50.333 123.000,49.667 123.000,49.000 C127.421,43.022 125.178,30.627 130.000,25.000 C132.186,23.363 138.202,23.886 142.000,24.000 zM21.000,26.000 C19.334,34.332 17.666,42.667 16.000,51.000 C11.667,51.000 7.333,51.000 3.000,51.000 C3.357,46.367 6.692,29.645 9.000,27.000 C11.186,25.363 17.202,25.886 21.000,26.000 z" fill="#FFFFFF" />
<path id="arrow-bottom" d="M197.667,0.500 L215.000,0.500 L203.000,15.167 L197.667,0.500 z" fill="#FFFFFF" />
</g>
</g>
</svg>
