<?xml version="1.0" encoding="utf-8"?>
<!-- Generator: Adobe Illustrator 16.0.0, SVG Export Plug-In . SVG Version: 6.00 Build 0)  -->
<!DOCTYPE svg PUBLIC "-//W3C//DTD SVG 1.1//EN" "http://www.w3.org/Graphics/SVG/1.1/DTD/svg11.dtd">
<svg version="1.1" xmlns="http://www.w3.org/2000/svg" xmlns:xlink="http://www.w3.org/1999/xlink" x="0px" y="0px"
	 width="15.999px" height="16px" viewBox="0 0 15.999 16" enable-background="new 0 0 15.999 16" xml:space="preserve">
<g id="Layer_0_xA0_Image_1_">
</g>
<g id="Row_5_1_">
</g>
<g id="Row_4_1_">
</g>
<g id="Row_3_1_">
</g>
<g id="Row_2_1_">
</g>
<g id="Row_1_1_">
	<g id="cloud">
		<g>
			<path fill="#fff" d="M1.271,11.55c0.05,0.021,0.047,0.021,0.022,0.008c-0.002-0.001-0.005-0.001-0.007-0.002
				C1.281,11.555,1.275,11.552,1.271,11.55z M15.933,8.327c-0.14-0.878-0.903-1.636-1.595-1.998
				c-0.191-0.099-0.381-0.175-0.571-0.226c-0.056-1.497-0.842-2.844-2.179-3.609C10.056,1.615,8.155,1.926,6.751,3.29
				C6.345,3.683,6.132,4.073,6.002,4.447C5.165,4.25,4.234,4.412,3.521,4.79C2.466,5.35,1.862,6.297,1.825,7.31
				c-0.591,0.14-1.119,0.512-1.469,1.078C0.113,8.781-0.016,9.299,0.001,9.807c0.039,1.101,1.154,1.685,1.292,1.751
				c4.208,1.783,8.703,1.923,13.015,0.356C14.011,12.021,16.426,11.428,15.933,8.327z M13.753,10.114
				c-3.829,1.378-7.869,1.39-11.624-0.226C1.913,9.714,1.748,9.725,1.961,9.376C2.17,9.037,2.495,9.132,2.625,9.188
				C2.989,9.348,3.418,9.26,3.691,8.968c0.272-0.293,0.331-0.726,0.146-1.079c-0.343-0.654,0.067-1.17,0.566-1.435
				c0.492-0.261,1.238-0.308,1.565,0.038C6.209,6.744,6.566,6.844,6.9,6.753C7.226,6.664,7.475,6.408,7.56,6.084
				c0.01-0.103,0.219-1.166,0.503-1.442c0.626-0.606,1.632-0.869,2.589-0.514c1.054,0.393,1.413,1.581,1.17,2.732
				c-0.073,0.352,0.054,0.716,0.337,0.938c0.249,0.194,1.583-0.142,1.915,0.826C14.293,9.295,14.192,9.891,13.753,10.114z
				 M7.57,6.056C7.568,6.065,7.563,6.074,7.56,6.084C7.559,6.101,7.561,6.098,7.57,6.056z"/>
		</g>
	</g>
</g>
</svg>
